<svg width="853" height="184" viewBox="0 0 853 184" fill="none" xmlns="http://www.w3.org/2000/svg">
<mask id="path-1-outside-1_16_33" maskUnits="userSpaceOnUse" x="0" y="0" width="840" height="152" fill="black">
<rect fill="white" width="840" height="152"/>
<path d="M52 132V36H20V20H116V36H84V132H52ZM144.8 132V20H256.8V36H176.8V68H240.8V84H176.8V116H256.8V132H144.8ZM333.6 132V36H301.6V20H397.6V36H365.6V132H333.6ZM426.4 132V20H522.4V36H538.4V84H506.4V100H522.4V116H538.4V132H490.4V116H474.4V100H458.4V132H426.4ZM458.4 84H490.4V68H506.4V36H458.4V84ZM583.2 132V116H615.2V36H583.2V20H679.2V36H647.2V116H679.2V132H583.2ZM724 132V116H708V100H740V116H788V84H724V68H708V36H724V20H804V36H820V52H788V36H740V68H804V84H820V116H804V132H724Z"/>
</mask>
<path d="M52 132V36H20V20H116V36H84V132H52ZM144.8 132V20H256.8V36H176.8V68H240.8V84H176.8V116H256.8V132H144.8ZM333.6 132V36H301.6V20H397.6V36H365.6V132H333.6ZM426.4 132V20H522.4V36H538.4V84H506.4V100H522.4V116H538.4V132H490.4V116H474.4V100H458.4V132H426.4ZM458.4 84H490.4V68H506.4V36H458.4V84ZM583.2 132V116H615.2V36H583.2V20H679.2V36H647.2V116H679.2V132H583.2ZM724 132V116H708V100H740V116H788V84H724V68H708V36H724V20H804V36H820V52H788V36H740V68H804V84H820V116H804V132H724Z" fill="#2B2C2D"/>
<path d="M52 132H32V152H52V132ZM52 36H72V16H52V36ZM20 36H0V56H20V36ZM20 20V0H0V20H20ZM116 20H136V0H116V20ZM116 36V56H136V36H116ZM84 36V16H64V36H84ZM84 132V152H104V132H84ZM52 132H72V36H52H32V132H52ZM52 36V16H20V36V56H52V36ZM20 36H40V20H20H0V36H20ZM20 20V40H116V20V0H20V20ZM116 20H96V36H116H136V20H116ZM116 36V16H84V36V56H116V36ZM84 36H64V132H84H104V36H84ZM84 132V112H52V132V152H84V132ZM144.8 132H124.8V152H144.8V132ZM144.8 20V0H124.8V20H144.8ZM256.8 20H276.8V0H256.8V20ZM256.8 36V56H276.8V36H256.8ZM176.8 36V16H156.8V36H176.8ZM176.8 68H156.8V88H176.8V68ZM240.8 68H260.8V48H240.8V68ZM240.8 84V104H260.8V84H240.8ZM176.8 84V64H156.8V84H176.8ZM176.8 116H156.8V136H176.8V116ZM256.8 116H276.8V96H256.8V116ZM256.8 132V152H276.8V132H256.8ZM144.8 132H164.8V20H144.8H124.8V132H144.8ZM144.8 20V40H256.8V20V0H144.8V20ZM256.8 20H236.8V36H256.8H276.8V20H256.8ZM256.8 36V16H176.8V36V56H256.8V36ZM176.8 36H156.8V68H176.8H196.8V36H176.8ZM176.8 68V88H240.8V68V48H176.8V68ZM240.8 68H220.8V84H240.8H260.8V68H240.8ZM240.8 84V64H176.8V84V104H240.8V84ZM176.8 84H156.8V116H176.8H196.8V84H176.8ZM176.8 116V136H256.8V116V96H176.8V116ZM256.8 116H236.8V132H256.8H276.8V116H256.8ZM256.8 132V112H144.8V132V152H256.8V132ZM333.6 132H313.6V152H333.6V132ZM333.6 36H353.6V16H333.6V36ZM301.6 36H281.6V56H301.6V36ZM301.6 20V0H281.6V20H301.6ZM397.6 20H417.6V0H397.6V20ZM397.6 36V56H417.6V36H397.6ZM365.6 36V16H345.6V36H365.6ZM365.6 132V152H385.6V132H365.6ZM333.6 132H353.6V36H333.6H313.6V132H333.6ZM333.6 36V16H301.6V36V56H333.6V36ZM301.6 36H321.6V20H301.6H281.6V36H301.6ZM301.6 20V40H397.6V20V0H301.6V20ZM397.6 20H377.6V36H397.6H417.6V20H397.6ZM397.6 36V16H365.6V36V56H397.6V36ZM365.6 36H345.6V132H365.6H385.6V36H365.6ZM365.6 132V112H333.6V132V152H365.6V132ZM426.4 132H406.4V152H426.4V132ZM426.4 20V0H406.4V20H426.4ZM522.4 20H542.4V0H522.4V20ZM522.4 36H502.4V56H522.4V36ZM538.4 36H558.4V16H538.4V36ZM538.4 84V104H558.4V84H538.4ZM506.4 84V64H486.4V84H506.4ZM506.4 100H486.4V120H506.4V100ZM522.4 100H542.4V80H522.4V100ZM522.4 116H502.4V136H522.4V116ZM538.4 116H558.4V96H538.4V116ZM538.4 132V152H558.4V132H538.4ZM490.4 132H470.4V152H490.4V132ZM490.4 116H510.4V96H490.4V116ZM474.4 116H454.4V136H474.4V116ZM474.4 100H494.4V80H474.4V100ZM458.4 100V80H438.4V100H458.4ZM458.4 132V152H478.4V132H458.4ZM458.4 84H438.4V104H458.4V84ZM490.4 84V104H510.4V84H490.4ZM490.4 68V48H470.4V68H490.4ZM506.4 68V88H526.4V68H506.4ZM506.4 36H526.4V16H506.4V36ZM458.4 36V16H438.4V36H458.4ZM426.4 132H446.4V20H426.4H406.4V132H426.4ZM426.4 20V40H522.4V20V0H426.4V20ZM522.4 20H502.4V36H522.4H542.4V20H522.4ZM522.4 36V56H538.4V36V16H522.4V36ZM538.4 36H518.4V84H538.4H558.4V36H538.4ZM538.4 84V64H506.4V84V104H538.4V84ZM506.4 84H486.4V100H506.4H526.4V84H506.4ZM506.4 100V120H522.4V100V80H506.4V100ZM522.4 100H502.4V116H522.4H542.4V100H522.4ZM522.4 116V136H538.4V116V96H522.4V116ZM538.4 116H518.4V132H538.4H558.4V116H538.4ZM538.4 132V112H490.4V132V152H538.4V132ZM490.4 132H510.4V116H490.4H470.4V132H490.4ZM490.4 116V96H474.4V116V136H490.4V116ZM474.4 116H494.4V100H474.4H454.4V116H474.4ZM474.4 100V80H458.4V100V120H474.4V100ZM458.4 100H438.4V132H458.4H478.4V100H458.4ZM458.4 132V112H426.4V132V152H458.4V132ZM458.4 84V104H490.4V84V64H458.4V84ZM490.4 84H510.4V68H490.4H470.4V84H490.4ZM490.4 68V88H506.4V68V48H490.4V68ZM506.4 68H526.4V36H506.4H486.4V68H506.4ZM506.4 36V16H458.4V36V56H506.4V36ZM458.4 36H438.4V84H458.4H478.4V36H458.4ZM583.2 132H563.2V152H583.2V132ZM583.2 116V96H563.2V116H583.2ZM615.2 116V136H635.2V116H615.2ZM615.2 36H635.2V16H615.2V36ZM583.2 36H563.2V56H583.2V36ZM583.2 20V0H563.2V20H583.2ZM679.2 20H699.2V0H679.2V20ZM679.2 36V56H699.2V36H679.2ZM647.2 36V16H627.2V36H647.2ZM647.2 116H627.2V136H647.2V116ZM679.2 116H699.2V96H679.2V116ZM679.2 132V152H699.2V132H679.2ZM583.2 132H603.2V116H583.2H563.2V132H583.2ZM583.2 116V136H615.2V116V96H583.2V116ZM615.2 116H635.2V36H615.2H595.2V116H615.2ZM615.2 36V16H583.2V36V56H615.2V36ZM583.2 36H603.2V20H583.2H563.2V36H583.2ZM583.2 20V40H679.2V20V0H583.2V20ZM679.2 20H659.2V36H679.2H699.2V20H679.2ZM679.2 36V16H647.2V36V56H679.2V36ZM647.2 36H627.2V116H647.2H667.2V36H647.2ZM647.2 116V136H679.2V116V96H647.2V116ZM679.2 116H659.2V132H679.2H699.2V116H679.2ZM679.2 132V112H583.2V132V152H679.2V132ZM724 132H704V152H724V132ZM724 116H744V96H724V116ZM708 116H688V136H708V116ZM708 100V80H688V100H708ZM740 100H760V80H740V100ZM740 116H720V136H740V116ZM788 116V136H808V116H788ZM788 84H808V64H788V84ZM724 84H704V104H724V84ZM724 68H744V48H724V68ZM708 68H688V88H708V68ZM708 36V16H688V36H708ZM724 36V56H744V36H724ZM724 20V0H704V20H724ZM804 20H824V0H804V20ZM804 36H784V56H804V36ZM820 36H840V16H820V36ZM820 52V72H840V52H820ZM788 52H768V72H788V52ZM788 36H808V16H788V36ZM740 36V16H720V36H740ZM740 68H720V88H740V68ZM804 68H824V48H804V68ZM804 84H784V104H804V84ZM820 84H840V64H820V84ZM820 116V136H840V116H820ZM804 116V96H784V116H804ZM804 132V152H824V132H804ZM724 132H744V116H724H704V132H724ZM724 116V96H708V116V136H724V116ZM708 116H728V100H708H688V116H708ZM708 100V120H740V100V80H708V100ZM740 100H720V116H740H760V100H740ZM740 116V136H788V116V96H740V116ZM788 116H808V84H788H768V116H788ZM788 84V64H724V84V104H788V84ZM724 84H744V68H724H704V84H724ZM724 68V48H708V68V88H724V68ZM708 68H728V36H708H688V68H708ZM708 36V56H724V36V16H708V36ZM724 36H744V20H724H704V36H724ZM724 20V40H804V20V0H724V20ZM804 20H784V36H804H824V20H804ZM804 36V56H820V36V16H804V36ZM820 36H800V52H820H840V36H820ZM820 52V32H788V52V72H820V52ZM788 52H808V36H788H768V52H788ZM788 36V16H740V36V56H788V36ZM740 36H720V68H740H760V36H740ZM740 68V88H804V68V48H740V68ZM804 68H784V84H804H824V68H804ZM804 84V104H820V84V64H804V84ZM820 84H800V116H820H840V84H820ZM820 116V96H804V116V136H820V116ZM804 116H784V132H804H824V116H804ZM804 132V112H724V132V152H804V132Z" fill="white" mask="url(#path-1-outside-1_16_33)"/>
<mask id="path-3-outside-2_16_33" maskUnits="userSpaceOnUse" x="19" y="31" width="810" height="122" fill="black">
<rect fill="white" x="19" y="31" width="810" height="122"/>
<path d="M56 148V52H24V36H120V52H88V148H56ZM148.8 148V36H260.8V52H180.8V84H244.8V100H180.8V132H260.8V148H148.8ZM337.6 148V52H305.6V36H401.6V52H369.6V148H337.6ZM430.4 148V36H526.4V52H542.4V100H510.4V116H526.4V132H542.4V148H494.4V132H478.4V116H462.4V148H430.4ZM462.4 100H494.4V84H510.4V52H462.4V100ZM587.2 148V132H619.2V52H587.2V36H683.2V52H651.2V132H683.2V148H587.2ZM728 148V132H712V116H744V132H792V100H728V84H712V52H728V36H808V52H824V68H792V52H744V84H808V100H824V132H808V148H728Z"/>
</mask>
<path d="M56 148V52H24V36H120V52H88V148H56ZM148.8 148V36H260.8V52H180.8V84H244.8V100H180.8V132H260.8V148H148.8ZM337.6 148V52H305.6V36H401.6V52H369.6V148H337.6ZM430.4 148V36H526.4V52H542.4V100H510.4V116H526.4V132H542.4V148H494.4V132H478.4V116H462.4V148H430.4ZM462.4 100H494.4V84H510.4V52H462.4V100ZM587.2 148V132H619.2V52H587.2V36H683.2V52H651.2V132H683.2V148H587.2ZM728 148V132H712V116H744V132H792V100H728V84H712V52H728V36H808V52H824V68H792V52H744V84H808V100H824V132H808V148H728Z" fill="#1500FF"/>
<path d="M56 148H51V153H56V148ZM56 52H61V47H56V52ZM24 52H19V57H24V52ZM24 36V31H19V36H24ZM120 36H125V31H120V36ZM120 52V57H125V52H120ZM88 52V47H83V52H88ZM88 148V153H93V148H88ZM56 148H61V52H56H51V148H56ZM56 52V47H24V52V57H56V52ZM24 52H29V36H24H19V52H24ZM24 36V41H120V36V31H24V36ZM120 36H115V52H120H125V36H120ZM120 52V47H88V52V57H120V52ZM88 52H83V148H88H93V52H88ZM88 148V143H56V148V153H88V148ZM148.8 148H143.8V153H148.8V148ZM148.8 36V31H143.8V36H148.8ZM260.8 36H265.8V31H260.8V36ZM260.8 52V57H265.8V52H260.8ZM180.8 52V47H175.8V52H180.8ZM180.8 84H175.8V89H180.8V84ZM244.8 84H249.8V79H244.8V84ZM244.8 100V105H249.8V100H244.8ZM180.8 100V95H175.8V100H180.8ZM180.8 132H175.8V137H180.8V132ZM260.8 132H265.8V127H260.8V132ZM260.8 148V153H265.8V148H260.8ZM148.8 148H153.8V36H148.8H143.8V148H148.8ZM148.8 36V41H260.8V36V31H148.8V36ZM260.8 36H255.8V52H260.8H265.8V36H260.8ZM260.8 52V47H180.8V52V57H260.8V52ZM180.8 52H175.8V84H180.8H185.8V52H180.8ZM180.8 84V89H244.8V84V79H180.8V84ZM244.8 84H239.8V100H244.8H249.8V84H244.8ZM244.8 100V95H180.8V100V105H244.8V100ZM180.8 100H175.8V132H180.8H185.8V100H180.8ZM180.8 132V137H260.8V132V127H180.8V132ZM260.8 132H255.8V148H260.8H265.8V132H260.8ZM260.8 148V143H148.8V148V153H260.8V148ZM337.6 148H332.6V153H337.6V148ZM337.6 52H342.6V47H337.6V52ZM305.6 52H300.6V57H305.6V52ZM305.6 36V31H300.6V36H305.6ZM401.6 36H406.6V31H401.6V36ZM401.6 52V57H406.6V52H401.6ZM369.6 52V47H364.6V52H369.6ZM369.6 148V153H374.6V148H369.6ZM337.6 148H342.6V52H337.6H332.6V148H337.6ZM337.6 52V47H305.6V52V57H337.6V52ZM305.6 52H310.6V36H305.6H300.6V52H305.6ZM305.6 36V41H401.6V36V31H305.6V36ZM401.6 36H396.6V52H401.6H406.6V36H401.6ZM401.6 52V47H369.6V52V57H401.6V52ZM369.6 52H364.6V148H369.6H374.6V52H369.6ZM369.6 148V143H337.6V148V153H369.6V148ZM430.4 148H425.4V153H430.4V148ZM430.4 36V31H425.4V36H430.4ZM526.4 36H531.4V31H526.4V36ZM526.4 52H521.4V57H526.4V52ZM542.4 52H547.4V47H542.4V52ZM542.4 100V105H547.4V100H542.4ZM510.4 100V95H505.4V100H510.4ZM510.4 116H505.4V121H510.4V116ZM526.4 116H531.4V111H526.4V116ZM526.4 132H521.4V137H526.4V132ZM542.4 132H547.4V127H542.4V132ZM542.4 148V153H547.4V148H542.4ZM494.4 148H489.4V153H494.4V148ZM494.4 132H499.4V127H494.4V132ZM478.4 132H473.4V137H478.4V132ZM478.4 116H483.4V111H478.4V116ZM462.4 116V111H457.4V116H462.4ZM462.4 148V153H467.4V148H462.4ZM462.4 100H457.4V105H462.4V100ZM494.4 100V105H499.4V100H494.4ZM494.4 84V79H489.4V84H494.4ZM510.4 84V89H515.4V84H510.4ZM510.4 52H515.4V47H510.4V52ZM462.4 52V47H457.4V52H462.4ZM430.4 148H435.4V36H430.4H425.4V148H430.4ZM430.4 36V41H526.4V36V31H430.4V36ZM526.4 36H521.4V52H526.4H531.4V36H526.4ZM526.4 52V57H542.4V52V47H526.4V52ZM542.4 52H537.4V100H542.4H547.4V52H542.4ZM542.4 100V95H510.4V100V105H542.4V100ZM510.4 100H505.4V116H510.4H515.4V100H510.4ZM510.4 116V121H526.4V116V111H510.4V116ZM526.4 116H521.4V132H526.4H531.4V116H526.4ZM526.4 132V137H542.4V132V127H526.4V132ZM542.4 132H537.4V148H542.4H547.4V132H542.4ZM542.4 148V143H494.4V148V153H542.4V148ZM494.4 148H499.4V132H494.4H489.4V148H494.4ZM494.4 132V127H478.4V132V137H494.4V132ZM478.4 132H483.4V116H478.4H473.4V132H478.4ZM478.4 116V111H462.4V116V121H478.4V116ZM462.4 116H457.4V148H462.4H467.4V116H462.4ZM462.4 148V143H430.4V148V153H462.4V148ZM462.4 100V105H494.4V100V95H462.4V100ZM494.4 100H499.4V84H494.4H489.4V100H494.4ZM494.4 84V89H510.4V84V79H494.4V84ZM510.4 84H515.4V52H510.4H505.4V84H510.4ZM510.4 52V47H462.4V52V57H510.4V52ZM462.4 52H457.4V100H462.4H467.4V52H462.4ZM587.2 148H582.2V153H587.2V148ZM587.2 132V127H582.2V132H587.2ZM619.2 132V137H624.2V132H619.2ZM619.2 52H624.2V47H619.2V52ZM587.2 52H582.2V57H587.2V52ZM587.2 36V31H582.2V36H587.2ZM683.2 36H688.2V31H683.2V36ZM683.2 52V57H688.2V52H683.2ZM651.2 52V47H646.2V52H651.2ZM651.2 132H646.2V137H651.2V132ZM683.2 132H688.2V127H683.2V132ZM683.2 148V153H688.2V148H683.2ZM587.2 148H592.2V132H587.2H582.2V148H587.2ZM587.2 132V137H619.2V132V127H587.2V132ZM619.2 132H624.2V52H619.2H614.2V132H619.2ZM619.2 52V47H587.2V52V57H619.2V52ZM587.2 52H592.2V36H587.2H582.2V52H587.2ZM587.2 36V41H683.2V36V31H587.2V36ZM683.2 36H678.2V52H683.2H688.2V36H683.2ZM683.2 52V47H651.2V52V57H683.2V52ZM651.2 52H646.2V132H651.2H656.2V52H651.2ZM651.2 132V137H683.2V132V127H651.2V132ZM683.2 132H678.2V148H683.2H688.2V132H683.2ZM683.2 148V143H587.2V148V153H683.2V148ZM728 148H723V153H728V148ZM728 132H733V127H728V132ZM712 132H707V137H712V132ZM712 116V111H707V116H712ZM744 116H749V111H744V116ZM744 132H739V137H744V132ZM792 132V137H797V132H792ZM792 100H797V95H792V100ZM728 100H723V105H728V100ZM728 84H733V79H728V84ZM712 84H707V89H712V84ZM712 52V47H707V52H712ZM728 52V57H733V52H728ZM728 36V31H723V36H728ZM808 36H813V31H808V36ZM808 52H803V57H808V52ZM824 52H829V47H824V52ZM824 68V73H829V68H824ZM792 68H787V73H792V68ZM792 52H797V47H792V52ZM744 52V47H739V52H744ZM744 84H739V89H744V84ZM808 84H813V79H808V84ZM808 100H803V105H808V100ZM824 100H829V95H824V100ZM824 132V137H829V132H824ZM808 132V127H803V132H808ZM808 148V153H813V148H808ZM728 148H733V132H728H723V148H728ZM728 132V127H712V132V137H728V132ZM712 132H717V116H712H707V132H712ZM712 116V121H744V116V111H712V116ZM744 116H739V132H744H749V116H744ZM744 132V137H792V132V127H744V132ZM792 132H797V100H792H787V132H792ZM792 100V95H728V100V105H792V100ZM728 100H733V84H728H723V100H728ZM728 84V79H712V84V89H728V84ZM712 84H717V52H712H707V84H712ZM712 52V57H728V52V47H712V52ZM728 52H733V36H728H723V52H728ZM728 36V41H808V36V31H728V36ZM808 36H803V52H808H813V36H808ZM808 52V57H824V52V47H808V52ZM824 52H819V68H824H829V52H824ZM824 68V63H792V68V73H824V68ZM792 68H797V52H792H787V68H792ZM792 52V47H744V52V57H792V52ZM744 52H739V84H744H749V52H744ZM744 84V89H808V84V79H744V84ZM808 84H803V100H808H813V84H808ZM808 100V105H824V100V95H808V100ZM824 100H819V132H824H829V100H824ZM824 132V127H808V132V137H824V132ZM808 132H803V148H808H813V132H808ZM808 148V143H728V148V153H808V148Z" fill="#1500FF" mask="url(#path-3-outside-2_16_33)"/>
<mask id="path-5-outside-3_16_33" maskUnits="userSpaceOnUse" x="19" y="31" width="810" height="122" fill="black">
<rect fill="white" x="19" y="31" width="810" height="122"/>
<path d="M56 148V52H24V36H120V52H88V148H56ZM148.8 148V36H260.8V52H180.8V84H244.8V100H180.8V132H260.8V148H148.8ZM337.6 148V52H305.6V36H401.6V52H369.6V148H337.6ZM430.4 148V36H526.4V52H542.4V100H510.4V116H526.4V132H542.4V148H494.4V132H478.4V116H462.4V148H430.4ZM462.4 100H494.4V84H510.4V52H462.4V100ZM587.2 148V132H619.2V52H587.2V36H683.2V52H651.2V132H683.2V148H587.2ZM728 148V132H712V116H744V132H792V100H728V84H712V52H728V36H808V52H824V68H792V52H744V84H808V100H824V132H808V148H728Z"/>
</mask>
<path d="M56 148V52H24V36H120V52H88V148H56ZM148.8 148V36H260.8V52H180.8V84H244.8V100H180.8V132H260.8V148H148.8ZM337.6 148V52H305.6V36H401.6V52H369.6V148H337.6ZM430.4 148V36H526.4V52H542.4V100H510.4V116H526.4V132H542.4V148H494.4V132H478.4V116H462.4V148H430.4ZM462.4 100H494.4V84H510.4V52H462.4V100ZM587.2 148V132H619.2V52H587.2V36H683.2V52H651.2V132H683.2V148H587.2ZM728 148V132H712V116H744V132H792V100H728V84H712V52H728V36H808V52H824V68H792V52H744V84H808V100H824V132H808V148H728Z" fill="#00FF09"/>
<path d="M56 148H51V153H56V148ZM56 52H61V47H56V52ZM24 52H19V57H24V52ZM24 36V31H19V36H24ZM120 36H125V31H120V36ZM120 52V57H125V52H120ZM88 52V47H83V52H88ZM88 148V153H93V148H88ZM56 148H61V52H56H51V148H56ZM56 52V47H24V52V57H56V52ZM24 52H29V36H24H19V52H24ZM24 36V41H120V36V31H24V36ZM120 36H115V52H120H125V36H120ZM120 52V47H88V52V57H120V52ZM88 52H83V148H88H93V52H88ZM88 148V143H56V148V153H88V148ZM148.8 148H143.8V153H148.8V148ZM148.8 36V31H143.8V36H148.8ZM260.8 36H265.8V31H260.8V36ZM260.8 52V57H265.8V52H260.8ZM180.8 52V47H175.8V52H180.8ZM180.8 84H175.8V89H180.8V84ZM244.8 84H249.8V79H244.8V84ZM244.8 100V105H249.8V100H244.8ZM180.8 100V95H175.8V100H180.8ZM180.8 132H175.8V137H180.8V132ZM260.8 132H265.8V127H260.8V132ZM260.8 148V153H265.8V148H260.8ZM148.8 148H153.8V36H148.8H143.8V148H148.8ZM148.8 36V41H260.8V36V31H148.8V36ZM260.8 36H255.8V52H260.8H265.8V36H260.8ZM260.8 52V47H180.8V52V57H260.8V52ZM180.8 52H175.8V84H180.8H185.8V52H180.8ZM180.8 84V89H244.8V84V79H180.8V84ZM244.8 84H239.8V100H244.8H249.8V84H244.8ZM244.8 100V95H180.8V100V105H244.8V100ZM180.8 100H175.8V132H180.8H185.8V100H180.8ZM180.8 132V137H260.8V132V127H180.8V132ZM260.8 132H255.8V148H260.8H265.8V132H260.8ZM260.8 148V143H148.8V148V153H260.8V148ZM337.6 148H332.6V153H337.6V148ZM337.6 52H342.6V47H337.6V52ZM305.6 52H300.6V57H305.6V52ZM305.6 36V31H300.6V36H305.6ZM401.6 36H406.6V31H401.6V36ZM401.6 52V57H406.6V52H401.6ZM369.6 52V47H364.6V52H369.6ZM369.6 148V153H374.6V148H369.6ZM337.6 148H342.6V52H337.6H332.6V148H337.6ZM337.6 52V47H305.6V52V57H337.6V52ZM305.6 52H310.6V36H305.6H300.6V52H305.6ZM305.6 36V41H401.6V36V31H305.6V36ZM401.6 36H396.6V52H401.6H406.6V36H401.6ZM401.6 52V47H369.6V52V57H401.6V52ZM369.6 52H364.6V148H369.6H374.6V52H369.6ZM369.6 148V143H337.6V148V153H369.6V148ZM430.4 148H425.4V153H430.4V148ZM430.4 36V31H425.4V36H430.4ZM526.4 36H531.4V31H526.4V36ZM526.4 52H521.4V57H526.4V52ZM542.4 52H547.4V47H542.4V52ZM542.4 100V105H547.4V100H542.4ZM510.4 100V95H505.4V100H510.4ZM510.4 116H505.4V121H510.4V116ZM526.4 116H531.4V111H526.4V116ZM526.4 132H521.4V137H526.4V132ZM542.4 132H547.4V127H542.4V132ZM542.4 148V153H547.4V148H542.4ZM494.4 148H489.4V153H494.4V148ZM494.4 132H499.4V127H494.4V132ZM478.4 132H473.4V137H478.4V132ZM478.4 116H483.4V111H478.4V116ZM462.4 116V111H457.4V116H462.4ZM462.4 148V153H467.4V148H462.4ZM462.4 100H457.4V105H462.4V100ZM494.4 100V105H499.4V100H494.4ZM494.4 84V79H489.4V84H494.4ZM510.4 84V89H515.4V84H510.4ZM510.4 52H515.4V47H510.4V52ZM462.4 52V47H457.4V52H462.4ZM430.4 148H435.4V36H430.4H425.4V148H430.4ZM430.4 36V41H526.4V36V31H430.4V36ZM526.4 36H521.4V52H526.4H531.4V36H526.4ZM526.4 52V57H542.4V52V47H526.4V52ZM542.4 52H537.4V100H542.4H547.4V52H542.4ZM542.4 100V95H510.4V100V105H542.4V100ZM510.4 100H505.4V116H510.4H515.4V100H510.4ZM510.4 116V121H526.4V116V111H510.4V116ZM526.4 116H521.4V132H526.4H531.4V116H526.4ZM526.4 132V137H542.4V132V127H526.4V132ZM542.4 132H537.4V148H542.4H547.4V132H542.4ZM542.4 148V143H494.4V148V153H542.4V148ZM494.4 148H499.4V132H494.4H489.4V148H494.4ZM494.4 132V127H478.4V132V137H494.4V132ZM478.4 132H483.4V116H478.4H473.4V132H478.4ZM478.4 116V111H462.4V116V121H478.4V116ZM462.4 116H457.4V148H462.4H467.4V116H462.4ZM462.4 148V143H430.4V148V153H462.4V148ZM462.4 100V105H494.4V100V95H462.4V100ZM494.4 100H499.4V84H494.4H489.4V100H494.4ZM494.4 84V89H510.4V84V79H494.4V84ZM510.4 84H515.4V52H510.4H505.4V84H510.4ZM510.4 52V47H462.4V52V57H510.4V52ZM462.4 52H457.4V100H462.4H467.4V52H462.4ZM587.2 148H582.2V153H587.2V148ZM587.2 132V127H582.2V132H587.2ZM619.2 132V137H624.2V132H619.2ZM619.2 52H624.2V47H619.2V52ZM587.2 52H582.2V57H587.2V52ZM587.2 36V31H582.2V36H587.2ZM683.2 36H688.2V31H683.2V36ZM683.2 52V57H688.2V52H683.2ZM651.2 52V47H646.2V52H651.2ZM651.2 132H646.2V137H651.2V132ZM683.2 132H688.2V127H683.2V132ZM683.2 148V153H688.2V148H683.2ZM587.2 148H592.2V132H587.2H582.2V148H587.2ZM587.2 132V137H619.2V132V127H587.2V132ZM619.2 132H624.2V52H619.2H614.2V132H619.2ZM619.2 52V47H587.2V52V57H619.2V52ZM587.2 52H592.2V36H587.2H582.2V52H587.2ZM587.2 36V41H683.2V36V31H587.2V36ZM683.2 36H678.2V52H683.2H688.2V36H683.2ZM683.2 52V47H651.2V52V57H683.2V52ZM651.2 52H646.2V132H651.2H656.2V52H651.2ZM651.2 132V137H683.2V132V127H651.2V132ZM683.2 132H678.2V148H683.2H688.2V132H683.2ZM683.2 148V143H587.2V148V153H683.2V148ZM728 148H723V153H728V148ZM728 132H733V127H728V132ZM712 132H707V137H712V132ZM712 116V111H707V116H712ZM744 116H749V111H744V116ZM744 132H739V137H744V132ZM792 132V137H797V132H792ZM792 100H797V95H792V100ZM728 100H723V105H728V100ZM728 84H733V79H728V84ZM712 84H707V89H712V84ZM712 52V47H707V52H712ZM728 52V57H733V52H728ZM728 36V31H723V36H728ZM808 36H813V31H808V36ZM808 52H803V57H808V52ZM824 52H829V47H824V52ZM824 68V73H829V68H824ZM792 68H787V73H792V68ZM792 52H797V47H792V52ZM744 52V47H739V52H744ZM744 84H739V89H744V84ZM808 84H813V79H808V84ZM808 100H803V105H808V100ZM824 100H829V95H824V100ZM824 132V137H829V132H824ZM808 132V127H803V132H808ZM808 148V153H813V148H808ZM728 148H733V132H728H723V148H728ZM728 132V127H712V132V137H728V132ZM712 132H717V116H712H707V132H712ZM712 116V121H744V116V111H712V116ZM744 116H739V132H744H749V116H744ZM744 132V137H792V132V127H744V132ZM792 132H797V100H792H787V132H792ZM792 100V95H728V100V105H792V100ZM728 100H733V84H728H723V100H728ZM728 84V79H712V84V89H728V84ZM712 84H717V52H712H707V84H712ZM712 52V57H728V52V47H712V52ZM728 52H733V36H728H723V52H728ZM728 36V41H808V36V31H728V36ZM808 36H803V52H808H813V36H808ZM808 52V57H824V52V47H808V52ZM824 52H819V68H824H829V52H824ZM824 68V63H792V68V73H824V68ZM792 68H797V52H792H787V68H792ZM792 52V47H744V52V57H792V52ZM744 52H739V84H744H749V52H744ZM744 84V89H808V84V79H744V84ZM808 84H803V100H808H813V84H808ZM808 100V105H824V100V95H808V100ZM824 100H819V132H824H829V100H824ZM824 132V127H808V132V137H824V132ZM808 132H803V148H808H813V132H808ZM808 148V143H728V148V153H808V148Z" fill="#00FF09" mask="url(#path-5-outside-3_16_33)"/>
<mask id="path-7-outside-4_16_33" maskUnits="userSpaceOnUse" x="32" y="51" width="810" height="122" fill="black">
<rect fill="white" x="32" y="51" width="810" height="122"/>
<path d="M69 168V72H37V56H133V72H101V168H69ZM161.8 168V56H273.8V72H193.8V104H257.8V120H193.8V152H273.8V168H161.8ZM350.6 168V72H318.6V56H414.6V72H382.6V168H350.6ZM443.4 168V56H539.4V72H555.4V120H523.4V136H539.4V152H555.4V168H507.4V152H491.4V136H475.4V168H443.4ZM475.4 120H507.4V104H523.4V72H475.4V120ZM600.2 168V152H632.2V72H600.2V56H696.2V72H664.2V152H696.2V168H600.2ZM741 168V152H725V136H757V152H805V120H741V104H725V72H741V56H821V72H837V88H805V72H757V104H821V120H837V152H821V168H741Z"/>
</mask>
<path d="M69 168V72H37V56H133V72H101V168H69ZM161.8 168V56H273.8V72H193.8V104H257.8V120H193.8V152H273.8V168H161.8ZM350.6 168V72H318.6V56H414.6V72H382.6V168H350.6ZM443.4 168V56H539.4V72H555.4V120H523.4V136H539.4V152H555.4V168H507.4V152H491.4V136H475.4V168H443.4ZM475.4 120H507.4V104H523.4V72H475.4V120ZM600.2 168V152H632.2V72H600.2V56H696.2V72H664.2V152H696.2V168H600.2ZM741 168V152H725V136H757V152H805V120H741V104H725V72H741V56H821V72H837V88H805V72H757V104H821V120H837V152H821V168H741Z" fill="#FF0000"/>
<path d="M69 168H64V173H69V168ZM69 72H74V67H69V72ZM37 72H32V77H37V72ZM37 56V51H32V56H37ZM133 56H138V51H133V56ZM133 72V77H138V72H133ZM101 72V67H96V72H101ZM101 168V173H106V168H101ZM69 168H74V72H69H64V168H69ZM69 72V67H37V72V77H69V72ZM37 72H42V56H37H32V72H37ZM37 56V61H133V56V51H37V56ZM133 56H128V72H133H138V56H133ZM133 72V67H101V72V77H133V72ZM101 72H96V168H101H106V72H101ZM101 168V163H69V168V173H101V168ZM161.8 168H156.8V173H161.8V168ZM161.8 56V51H156.8V56H161.8ZM273.8 56H278.8V51H273.8V56ZM273.8 72V77H278.8V72H273.8ZM193.8 72V67H188.8V72H193.8ZM193.8 104H188.8V109H193.8V104ZM257.8 104H262.8V99H257.8V104ZM257.8 120V125H262.8V120H257.8ZM193.8 120V115H188.8V120H193.8ZM193.8 152H188.8V157H193.8V152ZM273.8 152H278.8V147H273.8V152ZM273.8 168V173H278.8V168H273.8ZM161.8 168H166.8V56H161.8H156.8V168H161.8ZM161.8 56V61H273.8V56V51H161.8V56ZM273.8 56H268.8V72H273.8H278.8V56H273.8ZM273.8 72V67H193.8V72V77H273.8V72ZM193.8 72H188.8V104H193.8H198.8V72H193.8ZM193.8 104V109H257.8V104V99H193.8V104ZM257.8 104H252.8V120H257.8H262.8V104H257.8ZM257.8 120V115H193.8V120V125H257.8V120ZM193.8 120H188.8V152H193.8H198.8V120H193.8ZM193.8 152V157H273.8V152V147H193.8V152ZM273.8 152H268.8V168H273.8H278.8V152H273.8ZM273.8 168V163H161.8V168V173H273.8V168ZM350.6 168H345.6V173H350.6V168ZM350.6 72H355.6V67H350.6V72ZM318.6 72H313.6V77H318.6V72ZM318.6 56V51H313.6V56H318.6ZM414.6 56H419.6V51H414.6V56ZM414.6 72V77H419.6V72H414.6ZM382.6 72V67H377.6V72H382.6ZM382.6 168V173H387.6V168H382.6ZM350.6 168H355.6V72H350.6H345.6V168H350.6ZM350.6 72V67H318.6V72V77H350.6V72ZM318.6 72H323.6V56H318.6H313.6V72H318.6ZM318.6 56V61H414.6V56V51H318.6V56ZM414.6 56H409.6V72H414.6H419.6V56H414.6ZM414.6 72V67H382.6V72V77H414.6V72ZM382.6 72H377.6V168H382.6H387.6V72H382.6ZM382.6 168V163H350.6V168V173H382.6V168ZM443.4 168H438.4V173H443.4V168ZM443.4 56V51H438.4V56H443.4ZM539.4 56H544.4V51H539.4V56ZM539.4 72H534.4V77H539.4V72ZM555.4 72H560.4V67H555.4V72ZM555.4 120V125H560.4V120H555.4ZM523.4 120V115H518.4V120H523.4ZM523.4 136H518.4V141H523.4V136ZM539.4 136H544.4V131H539.4V136ZM539.4 152H534.4V157H539.4V152ZM555.4 152H560.4V147H555.4V152ZM555.4 168V173H560.4V168H555.4ZM507.4 168H502.4V173H507.4V168ZM507.4 152H512.4V147H507.4V152ZM491.4 152H486.4V157H491.4V152ZM491.4 136H496.4V131H491.4V136ZM475.4 136V131H470.4V136H475.4ZM475.4 168V173H480.4V168H475.4ZM475.4 120H470.4V125H475.4V120ZM507.4 120V125H512.4V120H507.4ZM507.4 104V99H502.4V104H507.4ZM523.4 104V109H528.4V104H523.4ZM523.4 72H528.4V67H523.4V72ZM475.4 72V67H470.4V72H475.4ZM443.4 168H448.4V56H443.4H438.4V168H443.4ZM443.4 56V61H539.4V56V51H443.4V56ZM539.4 56H534.4V72H539.4H544.4V56H539.4ZM539.4 72V77H555.4V72V67H539.4V72ZM555.4 72H550.4V120H555.4H560.4V72H555.4ZM555.4 120V115H523.4V120V125H555.4V120ZM523.4 120H518.4V136H523.4H528.4V120H523.4ZM523.4 136V141H539.4V136V131H523.4V136ZM539.4 136H534.4V152H539.4H544.4V136H539.4ZM539.4 152V157H555.4V152V147H539.4V152ZM555.4 152H550.4V168H555.4H560.4V152H555.4ZM555.4 168V163H507.4V168V173H555.4V168ZM507.4 168H512.4V152H507.4H502.4V168H507.4ZM507.4 152V147H491.4V152V157H507.4V152ZM491.4 152H496.4V136H491.4H486.4V152H491.4ZM491.4 136V131H475.4V136V141H491.4V136ZM475.4 136H470.4V168H475.4H480.4V136H475.4ZM475.4 168V163H443.4V168V173H475.4V168ZM475.4 120V125H507.4V120V115H475.4V120ZM507.4 120H512.4V104H507.4H502.4V120H507.4ZM507.4 104V109H523.4V104V99H507.4V104ZM523.4 104H528.4V72H523.4H518.4V104H523.4ZM523.4 72V67H475.4V72V77H523.4V72ZM475.4 72H470.4V120H475.4H480.4V72H475.4ZM600.2 168H595.2V173H600.2V168ZM600.2 152V147H595.2V152H600.2ZM632.2 152V157H637.2V152H632.2ZM632.2 72H637.2V67H632.2V72ZM600.2 72H595.2V77H600.2V72ZM600.2 56V51H595.2V56H600.2ZM696.2 56H701.2V51H696.2V56ZM696.2 72V77H701.2V72H696.2ZM664.2 72V67H659.2V72H664.2ZM664.2 152H659.2V157H664.2V152ZM696.2 152H701.2V147H696.2V152ZM696.2 168V173H701.2V168H696.2ZM600.2 168H605.2V152H600.2H595.2V168H600.2ZM600.2 152V157H632.2V152V147H600.2V152ZM632.2 152H637.2V72H632.2H627.2V152H632.2ZM632.2 72V67H600.2V72V77H632.2V72ZM600.2 72H605.2V56H600.2H595.2V72H600.2ZM600.2 56V61H696.2V56V51H600.2V56ZM696.2 56H691.2V72H696.2H701.2V56H696.2ZM696.2 72V67H664.2V72V77H696.2V72ZM664.2 72H659.2V152H664.2H669.2V72H664.2ZM664.2 152V157H696.2V152V147H664.2V152ZM696.2 152H691.2V168H696.2H701.2V152H696.2ZM696.2 168V163H600.2V168V173H696.2V168ZM741 168H736V173H741V168ZM741 152H746V147H741V152ZM725 152H720V157H725V152ZM725 136V131H720V136H725ZM757 136H762V131H757V136ZM757 152H752V157H757V152ZM805 152V157H810V152H805ZM805 120H810V115H805V120ZM741 120H736V125H741V120ZM741 104H746V99H741V104ZM725 104H720V109H725V104ZM725 72V67H720V72H725ZM741 72V77H746V72H741ZM741 56V51H736V56H741ZM821 56H826V51H821V56ZM821 72H816V77H821V72ZM837 72H842V67H837V72ZM837 88V93H842V88H837ZM805 88H800V93H805V88ZM805 72H810V67H805V72ZM757 72V67H752V72H757ZM757 104H752V109H757V104ZM821 104H826V99H821V104ZM821 120H816V125H821V120ZM837 120H842V115H837V120ZM837 152V157H842V152H837ZM821 152V147H816V152H821ZM821 168V173H826V168H821ZM741 168H746V152H741H736V168H741ZM741 152V147H725V152V157H741V152ZM725 152H730V136H725H720V152H725ZM725 136V141H757V136V131H725V136ZM757 136H752V152H757H762V136H757ZM757 152V157H805V152V147H757V152ZM805 152H810V120H805H800V152H805ZM805 120V115H741V120V125H805V120ZM741 120H746V104H741H736V120H741ZM741 104V99H725V104V109H741V104ZM725 104H730V72H725H720V104H725ZM725 72V77H741V72V67H725V72ZM741 72H746V56H741H736V72H741ZM741 56V61H821V56V51H741V56ZM821 56H816V72H821H826V56H821ZM821 72V77H837V72V67H821V72ZM837 72H832V88H837H842V72H837ZM837 88V83H805V88V93H837V88ZM805 88H810V72H805H800V88H805ZM805 72V67H757V72V77H805V72ZM757 72H752V104H757H762V72H757ZM757 104V109H821V104V99H757V104ZM821 104H816V120H821H826V104H821ZM821 120V125H837V120V115H821V120ZM837 120H832V152H837H842V120H837ZM837 152V147H821V152V157H837V152ZM821 152H816V168H821H826V152H821ZM821 168V163H741V168V173H821V168Z" fill="#FF0000" mask="url(#path-7-outside-4_16_33)"/>
</svg>
